P2
32 30
255
116 137 127 119 117 118 116 112 118 114
110 111 116 113 113 109 110 108 113 110
114 119 115 120 121 120 120 122 124 123
125 125 125 133 110 121 120 108 116 114
114 114 112 114 116 116 116 113 111 115
117 119 118 121 118 121 124 124 124 126
126 124 124 126 126 139 115 123 124 109
120 119 121 120 118 123 117 116 114 110
113 113 122 120 119 121 120 120 123 122
124 124 122 122 121 123 122 126 123 125
126 119 119 118 121 119 118 123 116 116
118 118 117 121 112 118 122 121 122 120
123 120 122 123 121 123 122 123 125 129
116 116 118 121 115 109 115 115 111 112
113 106 117 113 117 112 119 116 131 125
119 122 124 124 126 126 124 125 127 125
124 137 121 123 118 113 111 116 119 117
123 125 113 80 88 95 86 78 87 128
130 133 121 121 124 125 126 125 128 126
126 125 127 131 124 130 128 114 131 128
126 128 126 135 118 107 129 171 161 103
97 89 131 140 133 124 127 123 126 126
124 126 125 124 123 130 127 131 136 132
136 127 130 128 129 144 106 176 163 205
247 163 118 84 115 138 135 124 121 122
123 125 123 125 123 125 123 132 120 128
134 126 123 122 125 126 122 134 98 144
152 145 152 178 162 116 100 121 135 129
119 120 123 124 125 128 128 128 126 129
118 137 123 110 117 117 122 122 115 112
134 187 189 140 113 147 168 150 106 100
139 133 124 123 124 122 124 126 130 123
121 127 107 115 122 102 128 114 121 137
131 110 155 247 255 189 156 183 165 143
101 91 140 122 120 122 123 124 130 130
128 123 124 108 103 111 116 108 126 113
132 145 139 82 105 121 88 149 142 77
27 58 104 132 142 129 130 123 121 135
127 125 124 123 126 117 118 119 115 113
122 119 130 119 125 17 140 117 131 110
102 50 95 79 150 149 132 132 126 125
123 136 123 123 123 121 121 124 130 142
121 111 107 101 121 116 132 48 94 112
134 160 114 67 100 119 152 149 115 124
121 116 123 130 124 121 124 122 123 135
125 109 111 113 109 103 121 123 124 130
91 49 122 149 87 78 83 175 134 183
103 124 124 126 128 133 136 132 122 123
124 102 115 101 106 103 116 109 127 124
83 138 137 229 180 139 69 61 138 208
119 133 130 125 121 123 124 132 133 126
120 119 126 112 122 111 125 119 122 113
121 106 57 139 103 163 107 51 63 45
0 129 94 148 141 124 126 132 129 131
129 134 133 118 127 119 122 125 133 134
123 116 122 106 91 107 89 92 98 118
126 72 69 111 90 114 129 115 127 136
131 125 127 129 131 122 125 131 132 122
130 141 132 127 130 113 124 113 119 108
75 112 185 153 100 102 97 142 123 120
126 135 130 125 128 124 132 129 131 124
128 105 122 133 123 122 132 115 122 144
133 140 140 169 155 163 112 95 100 135
123 115 118 130 120 125 125 129 134 134
133 119 129 116 124 127 116 122 129 112
109 132 107 144 146 151 160 147 116 99
111 126 120 119 117 121 112 120 122 128
133 131 132 115 129 125 126 130 126 127
139 122 116 123 94 140 121 155 125 141
107 108 144 109 107 113 134 105 112 126
126 119 124 124 121 129 132 122 123 124
118 124 133 124 116 105 118 117 117 147
164 140 99 117 136 108 142 128 119 103
120 135 127 128 139 128 129 118 123 113
118 123 105 105 120 117 108 117 122 116
99 100 115 103 110 108 117 94 134 125
109 126 126 121 126 129 135 131 134 115
114 108 108 115 107 111 117 113 110 122
122 113 118 104 86 75 123 67 120 89
112 101 85 122 127 111 122 110 127 133
132 115 123 126 126 110 110 110 106 127
105 114 142 124 138 120 94 115 94 95
105 99 117 96 92 83 118 88 107 140
137 140 133 115 124 115 111 113 127 120
99 117 116 106 128 96 149 95 105 121
82 81 124 123 103 93 96 98 111 118
118 130 140 134 133 116 119 110 105 139
129 117 103 110 125 119 119 118 116 140
100 89 60 89 137 157 127 111 119 105
132 129 122 123 137 133 132 123 126 103
110 138 115 125 105 139 143 130 99 111
123 120 104 68 90 106 132 146 115 109
140 108 140 121 130 112 140 137 129 122
120 89 118 138 131 126 105 118 128 133
128 99 140 120 120 126 134 96 125 139
119 100 123 99 129 127 111 109 127 133

